<?xml version="1.0" encoding="UTF-8" standalone="no"?>
<!DOCTYPE svg PUBLIC "-//W3C//DTD SVG 1.1//EN"
 "http://www.w3.org/Graphics/SVG/1.1/DTD/svg11.dtd">
<!-- Generated by graphviz version 12.1.2 (20240928.0832)
 -->
<!-- Title: Principal.main Pages: 1 -->
<svg width="418pt" height="275pt"
 viewBox="0.00 0.00 417.50 275.00" xmlns="http://www.w3.org/2000/svg" xmlns:xlink="http://www.w3.org/1999/xlink">
<g id="graph0" class="graph" transform="scale(1 1) rotate(0) translate(4 271)">
<title>Principal.main</title>
<!-- Node1 -->
<g id="Node000001" class="node">
<title>Node1</title>
<g id="a_Node000001"><a xlink:title=" ">
<polygon fill="#999999" stroke="#666666" points="77.5,-134 0,-134 0,-114 77.5,-114 77.5,-134"/>
<text text-anchor="middle" x="38.75" y="-120.5" font-family="Helvetica,sans-Serif" font-size="10.00">Principal.main</text>
</a>
</g>
</g>
<!-- Node2 -->
<g id="Node000002" class="node">
<title>Node2</title>
<g id="a_Node000002"><a xlink:href="../../dd/d1a/class_principal.html#a34fb5c6f7d6d1b39586d712865ca369a" target="_top" xlink:title=" ">
<polygon fill="white" stroke="#666666" points="242,-248 118.75,-248 118.75,-228 242,-228 242,-248"/>
<text text-anchor="middle" x="180.38" y="-234.5" font-family="Helvetica,sans-Serif" font-size="10.00">Principal.asignarPedidos</text>
</a>
</g>
</g>
<!-- Node1&#45;&gt;Node2 -->
<g id="edge1_Node000001_Node000002" class="edge">
<title>Node1&#45;&gt;Node2</title>
<g id="a_edge1_Node000001_Node000002"><a xlink:title=" ">
<path fill="none" stroke="#63b8ff" d="M44.89,-134.32C55.17,-153.88 80.14,-196.39 113.5,-219 115.46,-220.33 117.52,-221.57 119.64,-222.72"/>
<polygon fill="#63b8ff" stroke="#63b8ff" points="118.05,-225.84 128.6,-226.88 121,-219.49 118.05,-225.84"/>
</a>
</g>
</g>
<!-- Node5 -->
<g id="Node000005" class="node">
<title>Node5</title>
<g id="a_Node000005"><a xlink:href="../../dd/d1a/class_principal.html#ad5bc8eb7c713642d22b732c519e0b83a" target="_top" xlink:title=" ">
<polygon fill="white" stroke="#666666" points="239,-210 121.75,-210 121.75,-190 239,-190 239,-210"/>
<text text-anchor="middle" x="180.38" y="-196.5" font-family="Helvetica,sans-Serif" font-size="10.00">Principal.cerrarScanner</text>
</a>
</g>
</g>
<!-- Node1&#45;&gt;Node5 -->
<g id="edge4_Node000001_Node000005" class="edge">
<title>Node1&#45;&gt;Node5</title>
<g id="a_edge4_Node000001_Node000005"><a xlink:title=" ">
<path fill="none" stroke="#63b8ff" d="M50.34,-134.32C63.92,-147.01 88.68,-168.41 113.5,-181 116.79,-182.67 120.25,-184.21 123.79,-185.64"/>
<polygon fill="#63b8ff" stroke="#63b8ff" points="122.54,-188.91 133.14,-189.04 124.94,-182.33 122.54,-188.91"/>
</a>
</g>
</g>
<!-- Node6 -->
<g id="Node000006" class="node">
<title>Node6</title>
<g id="a_Node000006"><a xlink:href="../../dd/d1a/class_principal.html#ac96c38a720f36dd51377cf92c4925944" target="_top" xlink:title=" ">
<polygon fill="white" stroke="#666666" points="247.25,-172 113.5,-172 113.5,-152 247.25,-152 247.25,-172"/>
<text text-anchor="middle" x="180.38" y="-158.5" font-family="Helvetica,sans-Serif" font-size="10.00">Principal.crearRepartidores</text>
</a>
</g>
</g>
<!-- Node1&#45;&gt;Node6 -->
<g id="edge5_Node000001_Node000006" class="edge">
<title>Node1&#45;&gt;Node6</title>
<g id="a_edge5_Node000001_Node000006"><a xlink:title=" ">
<path fill="none" stroke="#63b8ff" d="M77.9,-134.38C94.06,-138.78 113.1,-143.96 130.29,-148.64"/>
<polygon fill="#63b8ff" stroke="#63b8ff" points="129.24,-151.98 139.81,-151.23 131.08,-145.23 129.24,-151.98"/>
</a>
</g>
</g>
<!-- Node7 -->
<g id="Node000007" class="node">
<title>Node7</title>
<g id="a_Node000007"><a xlink:href="../../dd/d1a/class_principal.html#a07f807fc9dc5737b930c3f334faa4f8e" target="_top" xlink:title=" ">
<polygon fill="white" stroke="#666666" points="244.62,-134 116.12,-134 116.12,-114 244.62,-114 244.62,-134"/>
<text text-anchor="middle" x="180.38" y="-120.5" font-family="Helvetica,sans-Serif" font-size="10.00">Principal.empezarRepartir</text>
</a>
</g>
</g>
<!-- Node1&#45;&gt;Node7 -->
<g id="edge6_Node000001_Node000007" class="edge">
<title>Node1&#45;&gt;Node7</title>
<g id="a_edge6_Node000001_Node000007"><a xlink:title=" ">
<path fill="none" stroke="#63b8ff" d="M77.9,-124C86.23,-124 95.31,-124 104.51,-124"/>
<polygon fill="#63b8ff" stroke="#63b8ff" points="104.24,-127.5 114.24,-124 104.24,-120.5 104.24,-127.5"/>
</a>
</g>
</g>
<!-- Node8 -->
<g id="Node000008" class="node">
<title>Node8</title>
<g id="a_Node000008"><a xlink:href="../../dd/d1a/class_principal.html#a0cbc6ab316864e3c3d5176993854a44d" target="_top" xlink:title=" ">
<polygon fill="white" stroke="#666666" points="234.12,-96 126.62,-96 126.62,-76 234.12,-76 234.12,-96"/>
<text text-anchor="middle" x="180.38" y="-82.5" font-family="Helvetica,sans-Serif" font-size="10.00">Principal.leerPedidos</text>
</a>
</g>
</g>
<!-- Node1&#45;&gt;Node8 -->
<g id="edge7_Node000001_Node000008" class="edge">
<title>Node1&#45;&gt;Node8</title>
<g id="a_edge7_Node000001_Node000008"><a xlink:title=" ">
<path fill="none" stroke="#63b8ff" d="M77.9,-113.62C94.06,-109.22 113.1,-104.04 130.29,-99.36"/>
<polygon fill="#63b8ff" stroke="#63b8ff" points="131.08,-102.77 139.81,-96.77 129.24,-96.02 131.08,-102.77"/>
</a>
</g>
</g>
<!-- Node9 -->
<g id="Node000009" class="node">
<title>Node9</title>
<g id="a_Node000009"><a xlink:href="../../dd/d1a/class_principal.html#aa5d6cce117eb627d30947d39249147bc" target="_top" xlink:title=" ">
<polygon fill="white" stroke="#666666" points="237.12,-58 123.62,-58 123.62,-38 237.12,-38 237.12,-58"/>
<text text-anchor="middle" x="180.38" y="-44.5" font-family="Helvetica,sans-Serif" font-size="10.00">Principal.mostrarMenu</text>
</a>
</g>
</g>
<!-- Node1&#45;&gt;Node9 -->
<g id="edge8_Node000001_Node000009" class="edge">
<title>Node1&#45;&gt;Node9</title>
<g id="a_edge8_Node000001_Node000009"><a xlink:title=" ">
<path fill="none" stroke="#63b8ff" d="M50.34,-113.68C63.92,-100.99 88.68,-79.59 113.5,-67 116.79,-65.33 120.25,-63.79 123.79,-62.36"/>
<polygon fill="#63b8ff" stroke="#63b8ff" points="124.94,-65.67 133.14,-58.96 122.54,-59.09 124.94,-65.67"/>
</a>
</g>
</g>
<!-- Node10 -->
<g id="Node000010" class="node">
<title>Node10</title>
<g id="a_Node000010"><a xlink:href="../../dd/d1a/class_principal.html#a57fba8fa2eedee48e3467024e1a980da" target="_top" xlink:title=" ">
<polygon fill="white" stroke="#666666" points="227.38,-20 133.38,-20 133.38,0 227.38,0 227.38,-20"/>
<text text-anchor="middle" x="180.38" y="-6.5" font-family="Helvetica,sans-Serif" font-size="10.00">Principal.Principal</text>
</a>
</g>
</g>
<!-- Node1&#45;&gt;Node10 -->
<g id="edge9_Node000001_Node000010" class="edge">
<title>Node1&#45;&gt;Node10</title>
<g id="a_edge9_Node000001_Node000010"><a xlink:title=" ">
<path fill="none" stroke="#63b8ff" d="M44.89,-113.68C55.17,-94.12 80.14,-51.61 113.5,-29 116.36,-27.06 119.43,-25.31 122.6,-23.74"/>
<polygon fill="#63b8ff" stroke="#63b8ff" points="123.82,-27.03 131.66,-19.9 121.09,-20.59 123.82,-27.03"/>
</a>
</g>
</g>
<!-- Node3 -->
<g id="Node000003" class="node">
<title>Node3</title>
<g id="a_Node000003"><a xlink:href="../../df/ddb/class_repartidor.html#a83fd041fc0f4a53920f95a7e352f44fe" target="_top" xlink:title=" ">
<polygon fill="white" stroke="#666666" points="409.5,-267 283.25,-267 283.25,-247 409.5,-247 409.5,-267"/>
<text text-anchor="middle" x="346.38" y="-253.5" font-family="Helvetica,sans-Serif" font-size="10.00">Repartidor.agregarPedido</text>
</a>
</g>
</g>
<!-- Node2&#45;&gt;Node3 -->
<g id="edge2_Node000002_Node000003" class="edge">
<title>Node2&#45;&gt;Node3</title>
<g id="a_edge2_Node000002_Node000003"><a xlink:title=" ">
<path fill="none" stroke="#63b8ff" d="M242.44,-245.07C251.93,-246.17 261.83,-247.32 271.56,-248.45"/>
<polygon fill="#63b8ff" stroke="#63b8ff" points="271.05,-251.91 281.38,-249.59 271.85,-244.96 271.05,-251.91"/>
</a>
</g>
</g>
<!-- Node4 -->
<g id="Node000004" class="node">
<title>Node4</title>
<g id="a_Node000004"><a xlink:href="../../df/ddb/class_repartidor.html#ada72d4c48aea7f0213fc30e9b8584913" target="_top" xlink:title=" ">
<polygon fill="white" stroke="#666666" points="402.75,-229 290,-229 290,-209 402.75,-209 402.75,-229"/>
<text text-anchor="middle" x="346.38" y="-215.5" font-family="Helvetica,sans-Serif" font-size="10.00">Repartidor.getPedidos</text>
</a>
</g>
</g>
<!-- Node2&#45;&gt;Node4 -->
<g id="edge3_Node000002_Node000004" class="edge">
<title>Node2&#45;&gt;Node4</title>
<g id="a_edge3_Node000002_Node000004"><a xlink:title=" ">
<path fill="none" stroke="#63b8ff" d="M242.44,-230.93C254.17,-229.57 266.52,-228.14 278.43,-226.76"/>
<polygon fill="#63b8ff" stroke="#63b8ff" points="278.64,-230.26 288.17,-225.63 277.83,-223.3 278.64,-230.26"/>
</a>
</g>
</g>
</g>
</svg>
