<?xml version="1.0" encoding="UTF-8" standalone="no"?>
<!DOCTYPE svg PUBLIC "-//W3C//DTD SVG 1.1//EN"
 "http://www.w3.org/Graphics/SVG/1.1/DTD/svg11.dtd">
<!-- Generated by graphviz version 12.1.2 (20240928.0832)
 -->
<!-- Title: Pedido Pages: 1 -->
<svg width="206pt" height="468pt"
 viewBox="0.00 0.00 206.28 468.00" xmlns="http://www.w3.org/2000/svg" xmlns:xlink="http://www.w3.org/1999/xlink">
<g id="graph0" class="graph" transform="scale(1 1) rotate(0) translate(4 464)">
<title>Pedido</title>
<!-- Node1 -->
<g id="Node000001" class="node">
<title>Node1</title>
<g id="a_Node000001"><a xlink:title=" ">
<polygon fill="#999999" stroke="none" points="172.5,-348 5.5,-348 5.5,0 172.5,0 172.5,-348"/>
<text text-anchor="start" x="74" y="-334.5" font-family="Helvetica,sans-Serif" font-size="10.00">Pedido</text>
<text text-anchor="start" x="11" y="-318.5" font-family="Helvetica,sans-Serif" font-size="10.00">&#45;</text>
<text text-anchor="start" x="19.5" y="-318.5" font-family="Helvetica,sans-Serif" font-size="10.00">String nombre</text>
<text text-anchor="start" x="11" y="-302.5" font-family="Helvetica,sans-Serif" font-size="10.00">&#45;</text>
<text text-anchor="start" x="19.5" y="-302.5" font-family="Helvetica,sans-Serif" font-size="10.00">String alimento</text>
<text text-anchor="start" x="11" y="-286.5" font-family="Helvetica,sans-Serif" font-size="10.00">&#45;</text>
<text text-anchor="start" x="19.5" y="-286.5" font-family="Helvetica,sans-Serif" font-size="10.00">String bebida</text>
<text text-anchor="start" x="11" y="-270.5" font-family="Helvetica,sans-Serif" font-size="10.00">&#45;</text>
<text text-anchor="start" x="19.5" y="-270.5" font-family="Helvetica,sans-Serif" font-size="10.00">String helado</text>
<text text-anchor="start" x="9.5" y="-254.5" font-family="Helvetica,sans-Serif" font-size="10.00">+</text>
<text text-anchor="start" x="19.5" y="-254.5" font-family="Helvetica,sans-Serif" font-size="10.00">Pedido(String nombre,</text>
<text text-anchor="start" x="19.5" y="-242.5" font-family="Helvetica,sans-Serif" font-size="10.00"> String alimento, String</text>
<text text-anchor="start" x="19.5" y="-230.5" font-family="Helvetica,sans-Serif" font-size="10.00"> bebida, String helado)</text>
<text text-anchor="start" x="9.5" y="-214.5" font-family="Helvetica,sans-Serif" font-size="10.00">+</text>
<text text-anchor="start" x="19.5" y="-214.5" font-family="Helvetica,sans-Serif" font-size="10.00">void setFechaEntrega()</text>
<text text-anchor="start" x="9.5" y="-198.5" font-family="Helvetica,sans-Serif" font-size="10.00">+</text>
<text text-anchor="start" x="19.5" y="-198.5" font-family="Helvetica,sans-Serif" font-size="10.00">LocalDateTime getFechaEntrega()</text>
<text text-anchor="start" x="9.5" y="-182.5" font-family="Helvetica,sans-Serif" font-size="10.00">+</text>
<text text-anchor="start" x="19.5" y="-182.5" font-family="Helvetica,sans-Serif" font-size="10.00">String getNombre()</text>
<text text-anchor="start" x="9.5" y="-166.5" font-family="Helvetica,sans-Serif" font-size="10.00">+</text>
<text text-anchor="start" x="19.5" y="-166.5" font-family="Helvetica,sans-Serif" font-size="10.00">void setNombre(String</text>
<text text-anchor="start" x="19.5" y="-154.5" font-family="Helvetica,sans-Serif" font-size="10.00"> nombre)</text>
<text text-anchor="start" x="9.5" y="-138.5" font-family="Helvetica,sans-Serif" font-size="10.00">+</text>
<text text-anchor="start" x="19.5" y="-138.5" font-family="Helvetica,sans-Serif" font-size="10.00">String getAlimento()</text>
<text text-anchor="start" x="9.5" y="-122.5" font-family="Helvetica,sans-Serif" font-size="10.00">+</text>
<text text-anchor="start" x="19.5" y="-122.5" font-family="Helvetica,sans-Serif" font-size="10.00">void setAlimento(String</text>
<text text-anchor="start" x="19.5" y="-110.5" font-family="Helvetica,sans-Serif" font-size="10.00"> alimento)</text>
<text text-anchor="start" x="9.5" y="-94.5" font-family="Helvetica,sans-Serif" font-size="10.00">+</text>
<text text-anchor="start" x="19.5" y="-94.5" font-family="Helvetica,sans-Serif" font-size="10.00">String getBebida()</text>
<text text-anchor="start" x="9.5" y="-78.5" font-family="Helvetica,sans-Serif" font-size="10.00">+</text>
<text text-anchor="start" x="19.5" y="-78.5" font-family="Helvetica,sans-Serif" font-size="10.00">void setBebida(String</text>
<text text-anchor="start" x="19.5" y="-66.5" font-family="Helvetica,sans-Serif" font-size="10.00"> bebida)</text>
<text text-anchor="start" x="9.5" y="-50.5" font-family="Helvetica,sans-Serif" font-size="10.00">+</text>
<text text-anchor="start" x="19.5" y="-50.5" font-family="Helvetica,sans-Serif" font-size="10.00">String getHelado()</text>
<text text-anchor="start" x="9.5" y="-34.5" font-family="Helvetica,sans-Serif" font-size="10.00">+</text>
<text text-anchor="start" x="19.5" y="-34.5" font-family="Helvetica,sans-Serif" font-size="10.00">void setHelado(String</text>
<text text-anchor="start" x="19.5" y="-22.5" font-family="Helvetica,sans-Serif" font-size="10.00"> helado)</text>
<text text-anchor="start" x="9.5" y="-6.5" font-family="Helvetica,sans-Serif" font-size="10.00">+</text>
<text text-anchor="start" x="19.5" y="-6.5" font-family="Helvetica,sans-Serif" font-size="10.00">String toString()</text>
<polygon fill="#666666" stroke="#666666" points="5.5,-330 5.5,-330 172.5,-330 172.5,-330 5.5,-330"/>
<polygon fill="#666666" stroke="#666666" points="5.5,-266 5.5,-266 17.5,-266 17.5,-266 5.5,-266"/>
<polygon fill="#666666" stroke="#666666" points="17.5,-266 17.5,-266 172.5,-266 172.5,-266 17.5,-266"/>
<polygon fill="none" stroke="#666666" points="5.5,0 5.5,-348 172.5,-348 172.5,0 5.5,0"/>
</a>
</g>
</g>
<!-- Node2 -->
<g id="Node000002" class="node">
<title>Node2</title>
<g id="a_Node000002"><a xlink:title=" ">
<polygon fill="white" stroke="none" points="76,-460 0,-460 0,-408 76,-408 76,-460"/>
<text text-anchor="start" x="5" y="-446.5" font-family="Helvetica,sans-Serif" font-size="10.00">LocalDateTime</text>
<text text-anchor="start" x="36.5" y="-430.5" font-family="Helvetica,sans-Serif" font-size="10.00"> </text>
<text text-anchor="start" x="36.5" y="-414.5" font-family="Helvetica,sans-Serif" font-size="10.00"> </text>
<polygon fill="#666666" stroke="#666666" points="0,-442 0,-442 76,-442 76,-442 0,-442"/>
<polygon fill="#666666" stroke="#666666" points="0,-426 0,-426 76,-426 76,-426 0,-426"/>
<polygon fill="none" stroke="#666666" points="0,-408 0,-460 76,-460 76,-408 0,-408"/>
</a>
</g>
</g>
<!-- Node2&#45;&gt;Node1 -->
<g id="edge1_Node000001_Node000002" class="edge">
<title>Node2&#45;&gt;Node1</title>
<g id="a_edge1_Node000001_Node000002"><a xlink:title=" ">
<path fill="none" stroke="#63b8ff" d="M42.89,-408.26C45.38,-395.65 48.66,-379.06 52.32,-360.54"/>
<polygon fill="none" stroke="#63b8ff" points="52.35,-360.42 49.59,-353.76 54.67,-348.65 57.43,-355.31 52.35,-360.42"/>
</a>
</g>
<text text-anchor="middle" x="82.2" y="-380.5" font-family="Helvetica,sans-Serif" font-size="10.00" fill="grey"> &#45;fechaEntrega</text>
<text text-anchor="middle" x="82.2" y="-368.5" font-family="Helvetica,sans-Serif" font-size="10.00" fill="grey">&#45;fechaPedido</text>
</g>
<!-- Node3 -->
<g id="Node000003" class="node">
<title>Node3</title>
<g id="a_Node000003"><a xlink:title=" ">
<polygon fill="white" stroke="none" points="188,-460 94,-460 94,-408 188,-408 188,-460"/>
<text text-anchor="start" x="98.62" y="-446.5" font-family="Helvetica,sans-Serif" font-size="10.00">DateTimeFormatter</text>
<text text-anchor="start" x="139.5" y="-430.5" font-family="Helvetica,sans-Serif" font-size="10.00"> </text>
<text text-anchor="start" x="139.5" y="-414.5" font-family="Helvetica,sans-Serif" font-size="10.00"> </text>
<polygon fill="#666666" stroke="#666666" points="94,-442 94,-442 188,-442 188,-442 94,-442"/>
<polygon fill="#666666" stroke="#666666" points="94,-426 94,-426 188,-426 188,-426 94,-426"/>
<polygon fill="none" stroke="#666666" points="94,-408 94,-460 188,-460 188,-408 94,-408"/>
</a>
</g>
</g>
<!-- Node3&#45;&gt;Node1 -->
<g id="edge2_Node000001_Node000003" class="edge">
<title>Node3&#45;&gt;Node1</title>
<g id="a_edge2_Node000001_Node000003"><a xlink:title=" ">
<path fill="none" stroke="#63b8ff" d="M136.01,-408.26C133.47,-395.65 130.13,-379.06 126.4,-360.54"/>
<polygon fill="none" stroke="#63b8ff" points="126.37,-360.42 121.26,-355.32 124,-348.65 129.11,-353.74 126.37,-360.42"/>
</a>
</g>
<text text-anchor="middle" x="165.28" y="-374.5" font-family="Helvetica,sans-Serif" font-size="10.00" fill="grey"> &#45;personalizado</text>
</g>
</g>
</svg>
