<?xml version="1.0" encoding="UTF-8" standalone="no"?>
<!DOCTYPE svg PUBLIC "-//W3C//DTD SVG 1.1//EN"
 "http://www.w3.org/Graphics/SVG/1.1/DTD/svg11.dtd">
<!-- Generated by graphviz version 12.1.2 (20240928.0832)
 -->
<!-- Title: Repartidor Pages: 1 -->
<svg width="237pt" height="492pt"
 viewBox="0.00 0.00 237.00 492.00" xmlns="http://www.w3.org/2000/svg" xmlns:xlink="http://www.w3.org/1999/xlink">
<g id="graph0" class="graph" transform="scale(1 1) rotate(0) translate(4 488)">
<title>Repartidor</title>
<!-- Node1 -->
<g id="Node000001" class="node">
<title>Node1</title>
<g id="a_Node000001"><a xlink:title=" ">
<polygon fill="#999999" stroke="none" points="178,-284 43,-284 43,0 178,0 178,-284"/>
<text text-anchor="start" x="88" y="-270.5" font-family="Helvetica,sans-Serif" font-size="10.00">Repartidor</text>
<text text-anchor="start" x="48.5" y="-254.5" font-family="Helvetica,sans-Serif" font-size="10.00">&#45;</text>
<text text-anchor="start" x="57" y="-254.5" font-family="Helvetica,sans-Serif" font-size="10.00">String nombre</text>
<text text-anchor="start" x="48.5" y="-238.5" font-family="Helvetica,sans-Serif" font-size="10.00">&#45;</text>
<text text-anchor="start" x="57" y="-238.5" font-family="Helvetica,sans-Serif" font-size="10.00">int idRepartidor</text>
<text text-anchor="start" x="48.5" y="-222.5" font-family="Helvetica,sans-Serif" font-size="10.00">&#45;</text>
<text text-anchor="start" x="57" y="-222.5" font-family="Helvetica,sans-Serif" font-size="10.00">boolean estado</text>
<text text-anchor="start" x="47" y="-206.5" font-family="Helvetica,sans-Serif" font-size="10.00">+</text>
<text text-anchor="start" x="57" y="-206.5" font-family="Helvetica,sans-Serif" font-size="10.00">Repartidor(String</text>
<text text-anchor="start" x="57" y="-194.5" font-family="Helvetica,sans-Serif" font-size="10.00"> nombre, int idRepartidor,</text>
<text text-anchor="start" x="57" y="-182.5" font-family="Helvetica,sans-Serif" font-size="10.00"> Semaphore semaforo)</text>
<text text-anchor="start" x="47" y="-166.5" font-family="Helvetica,sans-Serif" font-size="10.00">+</text>
<text text-anchor="start" x="57" y="-166.5" font-family="Helvetica,sans-Serif" font-size="10.00">void run()</text>
<text text-anchor="start" x="47" y="-150.5" font-family="Helvetica,sans-Serif" font-size="10.00">+</text>
<text text-anchor="start" x="57" y="-150.5" font-family="Helvetica,sans-Serif" font-size="10.00">synchronized void entregar</text>
<text text-anchor="start" x="57" y="-138.5" font-family="Helvetica,sans-Serif" font-size="10.00">Pedido()</text>
<text text-anchor="start" x="47" y="-122.5" font-family="Helvetica,sans-Serif" font-size="10.00">+</text>
<text text-anchor="start" x="57" y="-122.5" font-family="Helvetica,sans-Serif" font-size="10.00">synchronized boolean</text>
<text text-anchor="start" x="57" y="-110.5" font-family="Helvetica,sans-Serif" font-size="10.00"> tienePedido()</text>
<text text-anchor="start" x="47" y="-94.5" font-family="Helvetica,sans-Serif" font-size="10.00">+</text>
<text text-anchor="start" x="57" y="-94.5" font-family="Helvetica,sans-Serif" font-size="10.00">synchronized void agregar</text>
<text text-anchor="start" x="57" y="-82.5" font-family="Helvetica,sans-Serif" font-size="10.00">Pedido(Pedido pedido)</text>
<text text-anchor="start" x="47" y="-66.5" font-family="Helvetica,sans-Serif" font-size="10.00">+</text>
<text text-anchor="start" x="57" y="-66.5" font-family="Helvetica,sans-Serif" font-size="10.00">String getNombre()</text>
<text text-anchor="start" x="47" y="-50.5" font-family="Helvetica,sans-Serif" font-size="10.00">+</text>
<text text-anchor="start" x="57" y="-50.5" font-family="Helvetica,sans-Serif" font-size="10.00">int getIdRepartidor()</text>
<text text-anchor="start" x="47" y="-34.5" font-family="Helvetica,sans-Serif" font-size="10.00">+</text>
<text text-anchor="start" x="57" y="-34.5" font-family="Helvetica,sans-Serif" font-size="10.00">boolean getEstado()</text>
<text text-anchor="start" x="47" y="-18.5" font-family="Helvetica,sans-Serif" font-size="10.00">+</text>
<text text-anchor="start" x="57" y="-18.5" font-family="Helvetica,sans-Serif" font-size="10.00">synchronized Stack</text>
<text text-anchor="start" x="57" y="-6.5" font-family="Helvetica,sans-Serif" font-size="10.00">&lt; Pedido &gt; getPedidos()</text>
<polygon fill="#666666" stroke="#666666" points="43,-266 43,-266 178,-266 178,-266 43,-266"/>
<polygon fill="#666666" stroke="#666666" points="43,-218 43,-218 55,-218 55,-218 43,-218"/>
<polygon fill="#666666" stroke="#666666" points="55,-218 55,-218 178,-218 178,-218 55,-218"/>
<polygon fill="none" stroke="#666666" points="43,0 43,-284 178,-284 178,0 43,0"/>
</a>
</g>
</g>
<!-- Node2 -->
<g id="Node000002" class="node">
<title>Node2</title>
<g id="a_Node000002"><a xlink:title=" ">
<polygon fill="white" stroke="none" points="51,-384 0,-384 0,-332 51,-332 51,-384"/>
<text text-anchor="start" x="4.88" y="-370.5" font-family="Helvetica,sans-Serif" font-size="10.00">Runnable</text>
<text text-anchor="start" x="24" y="-354.5" font-family="Helvetica,sans-Serif" font-size="10.00"> </text>
<text text-anchor="start" x="24" y="-338.5" font-family="Helvetica,sans-Serif" font-size="10.00"> </text>
<polygon fill="#666666" stroke="#666666" points="0,-366 0,-366 51,-366 51,-366 0,-366"/>
<polygon fill="#666666" stroke="#666666" points="0,-350 0,-350 51,-350 51,-350 0,-350"/>
<polygon fill="none" stroke="#666666" points="0,-332 0,-384 51,-384 51,-332 0,-332"/>
</a>
</g>
</g>
<!-- Node2&#45;&gt;Node1 -->
<g id="edge1_Node000001_Node000002" class="edge">
<title>Node2&#45;&gt;Node1</title>
<g id="a_edge1_Node000001_Node000002"><a xlink:title=" ">
<path fill="none" stroke="#63b8ff" d="M39.54,-321.65C43.93,-310.6 49.07,-297.67 54.54,-283.9"/>
<polygon fill="none" stroke="#63b8ff" points="36.41,-320.04 35.98,-330.63 42.92,-322.62 36.41,-320.04"/>
</a>
</g>
</g>
<!-- Node3 -->
<g id="Node000003" class="node">
<title>Node3</title>
<g id="a_Node000003"><a xlink:title=" ">
<polygon fill="white" stroke="none" points="152,-384 69,-384 69,-332 152,-332 152,-384"/>
<text text-anchor="start" x="73.75" y="-370.5" font-family="Helvetica,sans-Serif" font-size="10.00">Stack&lt; Pedido &gt;</text>
<text text-anchor="start" x="109" y="-354.5" font-family="Helvetica,sans-Serif" font-size="10.00"> </text>
<text text-anchor="start" x="109" y="-338.5" font-family="Helvetica,sans-Serif" font-size="10.00"> </text>
<polygon fill="#666666" stroke="#666666" points="69,-366 69,-366 152,-366 152,-366 69,-366"/>
<polygon fill="#666666" stroke="#666666" points="69,-350 69,-350 152,-350 152,-350 69,-350"/>
<polygon fill="none" stroke="#666666" points="69,-332 69,-384 152,-384 152,-332 69,-332"/>
</a>
</g>
</g>
<!-- Node3&#45;&gt;Node1 -->
<g id="edge2_Node000001_Node000003" class="edge">
<title>Node3&#45;&gt;Node1</title>
<g id="a_edge2_Node000001_Node000003"><a xlink:title=" ">
<path fill="none" stroke="#63b8ff" d="M110.5,-332.03C110.5,-322.26 110.5,-310.2 110.5,-296.94"/>
<polygon fill="none" stroke="#63b8ff" points="110.5,-296.8 106.5,-290.8 110.5,-284.8 114.5,-290.8 110.5,-296.8"/>
</a>
</g>
<text text-anchor="middle" x="130.38" y="-304.5" font-family="Helvetica,sans-Serif" font-size="10.00" fill="grey"> &#45;pedidos</text>
</g>
<!-- Node4 -->
<g id="Node000004" class="node">
<title>Node4</title>
<g id="a_Node000004"><a xlink:title=" ">
<polygon fill="white" stroke="none" points="128,-484 93,-484 93,-432 128,-432 128,-484"/>
<text text-anchor="start" x="97.75" y="-470.5" font-family="Helvetica,sans-Serif" font-size="10.00">Stack</text>
<text text-anchor="start" x="109" y="-454.5" font-family="Helvetica,sans-Serif" font-size="10.00"> </text>
<text text-anchor="start" x="109" y="-438.5" font-family="Helvetica,sans-Serif" font-size="10.00"> </text>
<polygon fill="#666666" stroke="#666666" points="93,-466 93,-466 128,-466 128,-466 93,-466"/>
<polygon fill="#666666" stroke="#666666" points="93,-450 93,-450 128,-450 128,-450 93,-450"/>
<polygon fill="none" stroke="#666666" points="93,-432 93,-484 128,-484 128,-432 93,-432"/>
</a>
</g>
</g>
<!-- Node4&#45;&gt;Node3 -->
<g id="edge3_Node000003_Node000004" class="edge">
<title>Node4&#45;&gt;Node3</title>
<g id="a_edge3_Node000003_Node000004"><a xlink:title=" ">
<path fill="none" stroke="orange" d="M110.5,-420.74C110.5,-408.49 110.5,-395.1 110.5,-383.94"/>
<polygon fill="orange" stroke="orange" points="107,-420.5 110.5,-430.5 114,-420.5 107,-420.5"/>
</a>
</g>
<text text-anchor="middle" x="136" y="-404.5" font-family="Helvetica,sans-Serif" font-size="10.00" fill="grey"> &lt; Pedido &gt;</text>
</g>
<!-- Node5 -->
<g id="Node000005" class="node">
<title>Node5</title>
<g id="a_Node000005"><a xlink:title=" ">
<polygon fill="white" stroke="none" points="229,-384 170,-384 170,-332 229,-332 229,-384"/>
<text text-anchor="start" x="174.75" y="-370.5" font-family="Helvetica,sans-Serif" font-size="10.00">Semaphore</text>
<text text-anchor="start" x="198" y="-354.5" font-family="Helvetica,sans-Serif" font-size="10.00"> </text>
<text text-anchor="start" x="198" y="-338.5" font-family="Helvetica,sans-Serif" font-size="10.00"> </text>
<polygon fill="#666666" stroke="#666666" points="170,-366 170,-366 229,-366 229,-366 170,-366"/>
<polygon fill="#666666" stroke="#666666" points="170,-350 170,-350 229,-350 229,-350 170,-350"/>
<polygon fill="none" stroke="#666666" points="170,-332 170,-384 229,-384 229,-332 170,-332"/>
</a>
</g>
</g>
<!-- Node5&#45;&gt;Node1 -->
<g id="edge4_Node000001_Node000005" class="edge">
<title>Node5&#45;&gt;Node1</title>
<g id="a_edge4_Node000001_Node000005"><a xlink:title=" ">
<path fill="none" stroke="#63b8ff" d="M189.12,-332.03C184.93,-321.95 179.72,-309.45 174.01,-295.71"/>
<polygon fill="none" stroke="#63b8ff" points="174.05,-295.81 168.05,-291.81 169.44,-284.73 175.44,-288.73 174.05,-295.81"/>
</a>
</g>
<text text-anchor="middle" x="203.53" y="-304.5" font-family="Helvetica,sans-Serif" font-size="10.00" fill="grey"> &#45;semaforo</text>
</g>
</g>
</svg>
