<?xml version="1.0" encoding="UTF-8" standalone="no"?>
<!DOCTYPE svg PUBLIC "-//W3C//DTD SVG 1.1//EN"
 "http://www.w3.org/Graphics/SVG/1.1/DTD/svg11.dtd">
<!-- Generated by graphviz version 12.1.2 (20240928.0832)
 -->
<!-- Title: Principal Pages: 1 -->
<svg width="162pt" height="324pt"
 viewBox="0.00 0.00 162.00 324.00" xmlns="http://www.w3.org/2000/svg" xmlns:xlink="http://www.w3.org/1999/xlink">
<g id="graph0" class="graph" transform="scale(1 1) rotate(0) translate(4 320)">
<title>Principal</title>
<!-- Node1 -->
<g id="Node000001" class="node">
<title>Node1</title>
<g id="a_Node000001"><a xlink:title=" ">
<polygon fill="#999999" stroke="none" points="154,-216 0,-216 0,0 154,0 154,-216"/>
<text text-anchor="start" x="58.25" y="-202.5" font-family="Helvetica,sans-Serif" font-size="10.00">Principal</text>
<text text-anchor="start" x="5.5" y="-186.5" font-family="Helvetica,sans-Serif" font-size="10.00">&#45;</text>
<text text-anchor="start" x="14" y="-186.5" font-family="Helvetica,sans-Serif" font-size="10.00">LinkedList&lt; Repartidor</text>
<text text-anchor="start" x="14" y="-174.5" font-family="Helvetica,sans-Serif" font-size="10.00"> &gt; repartidores</text>
<text text-anchor="start" x="5.5" y="-158.5" font-family="Helvetica,sans-Serif" font-size="10.00">&#45;</text>
<text text-anchor="start" x="14" y="-158.5" font-family="Helvetica,sans-Serif" font-size="10.00">Scanner sc</text>
<text text-anchor="start" x="4" y="-142.5" font-family="Helvetica,sans-Serif" font-size="10.00">+</text>
<text text-anchor="start" x="14" y="-142.5" font-family="Helvetica,sans-Serif" font-size="10.00">Principal()</text>
<text text-anchor="start" x="4" y="-126.5" font-family="Helvetica,sans-Serif" font-size="10.00">+</text>
<text text-anchor="start" x="14" y="-126.5" font-family="Helvetica,sans-Serif" font-size="10.00">static void main(String</text>
<text text-anchor="start" x="14" y="-114.5" font-family="Helvetica,sans-Serif" font-size="10.00">[] args)</text>
<text text-anchor="start" x="5.5" y="-98.5" font-family="Helvetica,sans-Serif" font-size="10.00">&#45;</text>
<text text-anchor="start" x="14" y="-98.5" font-family="Helvetica,sans-Serif" font-size="10.00">void crearRepartidores()</text>
<text text-anchor="start" x="5.5" y="-82.5" font-family="Helvetica,sans-Serif" font-size="10.00">&#45;</text>
<text text-anchor="start" x="14" y="-82.5" font-family="Helvetica,sans-Serif" font-size="10.00">void mostrarMenu()</text>
<text text-anchor="start" x="5.5" y="-66.5" font-family="Helvetica,sans-Serif" font-size="10.00">&#45;</text>
<text text-anchor="start" x="14" y="-66.5" font-family="Helvetica,sans-Serif" font-size="10.00">Queue&lt; Pedido &gt; leerPedidos()</text>
<text text-anchor="start" x="5.5" y="-50.5" font-family="Helvetica,sans-Serif" font-size="10.00">&#45;</text>
<text text-anchor="start" x="14" y="-50.5" font-family="Helvetica,sans-Serif" font-size="10.00">void asignarPedidos</text>
<text text-anchor="start" x="14" y="-38.5" font-family="Helvetica,sans-Serif" font-size="10.00">(Queue&lt; Pedido &gt; ordenes)</text>
<text text-anchor="start" x="5.5" y="-22.5" font-family="Helvetica,sans-Serif" font-size="10.00">&#45;</text>
<text text-anchor="start" x="14" y="-22.5" font-family="Helvetica,sans-Serif" font-size="10.00">void empezarRepartir()</text>
<text text-anchor="start" x="5.5" y="-6.5" font-family="Helvetica,sans-Serif" font-size="10.00">&#45;</text>
<text text-anchor="start" x="14" y="-6.5" font-family="Helvetica,sans-Serif" font-size="10.00">void cerrarScanner()</text>
<polygon fill="#666666" stroke="#666666" points="0,-198 0,-198 154,-198 154,-198 0,-198"/>
<polygon fill="#666666" stroke="#666666" points="0,-154 0,-154 12,-154 12,-154 0,-154"/>
<polygon fill="#666666" stroke="#666666" points="12,-154 12,-154 154,-154 154,-154 12,-154"/>
<polygon fill="none" stroke="#666666" points="0,0 0,-216 154,-216 154,0 0,0"/>
</a>
</g>
</g>
<!-- Node2 -->
<g id="Node000002" class="node">
<title>Node2</title>
<g id="a_Node000002"><a xlink:title=" ">
<polygon fill="white" stroke="none" points="106.5,-316 47.5,-316 47.5,-264 106.5,-264 106.5,-316"/>
<text text-anchor="start" x="52.25" y="-302.5" font-family="Helvetica,sans-Serif" font-size="10.00">Semaphore</text>
<text text-anchor="start" x="75.5" y="-286.5" font-family="Helvetica,sans-Serif" font-size="10.00"> </text>
<text text-anchor="start" x="75.5" y="-270.5" font-family="Helvetica,sans-Serif" font-size="10.00"> </text>
<polygon fill="#666666" stroke="#666666" points="47.5,-298 47.5,-298 106.5,-298 106.5,-298 47.5,-298"/>
<polygon fill="#666666" stroke="#666666" points="47.5,-282 47.5,-282 106.5,-282 106.5,-282 47.5,-282"/>
<polygon fill="none" stroke="#666666" points="47.5,-264 47.5,-316 106.5,-316 106.5,-264 47.5,-264"/>
</a>
</g>
</g>
<!-- Node2&#45;&gt;Node1 -->
<g id="edge1_Node000001_Node000002" class="edge">
<title>Node2&#45;&gt;Node1</title>
<g id="a_edge1_Node000001_Node000002"><a xlink:title=" ">
<path fill="none" stroke="#63b8ff" d="M77,-264.35C77,-254.35 77,-242.02 77,-228.72"/>
<polygon fill="none" stroke="#63b8ff" points="77,-228.61 73,-222.61 77,-216.61 81,-222.61 77,-228.61"/>
</a>
</g>
<text text-anchor="middle" x="100.25" y="-236.5" font-family="Helvetica,sans-Serif" font-size="10.00" fill="grey"> &#45;semaforo</text>
</g>
</g>
</svg>
